<?xml version="1.0" standalone="no"?>
<!DOCTYPE svg PUBLIC "-//W3C//DTD SVG 1.1//EN" "http://www.w3.org/Graphics/SVG/1.1/DTD/svg11.dtd">
<svg version="1.1" xmlns="http://www.w3.org/2000/svg" xmlns:xlink="http://www.w3.org/1999/xlink" x="0px" y="0px" viewBox="0 0 983.11 976" style="enable-background:new 0 0 983.11 976;" xml:space="preserve" width="983.1099853515625" height="976">
<style type="text/css">
	.st0{fill:#F393BD;}
	.st1{fill:#FFFFFF;}
	.st2{fill:#030201;}
</style>
<g id="svg869" xmlns:cc="http://creativecommons.org/ns#" xmlns:dc="http://purl.org/dc/elements/1.1/" xmlns:rdf="http://www.w3.org/1999/02/22-rdf-syntax-ns#" xmlns:svg="http://www.w3.org/2000/svg">
	<circle cx="488.85" cy="495.9" r="455.18"/>
</g>
<g id="Lager_2">
	<path class="st0" d="M109.86,412.04c-0.07-54.02,34.31-103.62,85.59-123.4c42.58-16.42,83.9-11.93,124.1,8   c19.22,9.54,36.62,21.68,48.9,39.85c14.8,21.82,21.33,46.09,21.26,72.19c-0.14,41.25-13.05,78.08-40.2,109.44   c-24.69,28.41-56.12,41.11-93.52,36.76c-54.09-6.31-96.6-32.41-126.7-77.87C116.39,457.43,109.93,435.61,109.86,412.04z    M336.53,413.65c-0.28-3.37-0.49-6.73-0.98-10.1c-2.46-16.42-12.42-26.73-27.15-27.99c-9.68-0.77-18.8,1.05-27.22,6.1   c-8.14,4.84-15.08,11.08-20.91,18.45c-13.26,16.63-21.96,34.94-20.84,56.82c0.77,15.01,10.59,27.92,24.97,32.2   c14.87,4.42,28.76,2.46,40.69-7.93C325.66,463.46,335.13,440.45,336.53,413.65z M226.39,346.93c-0.63-13.54-7.23-22.45-19.29-25.12   c-6.45-1.4-12.84-0.63-18.24,2.95c-5.82,3.93-11.65,8.35-16.35,13.54c-11.51,12.91-19.01,28.2-24.41,44.55   c-2.53,7.58-4.56,15.22-4.14,23.36c0.21,5.33,1.47,6.95,6.52,8.63c12.63,4.14,24.34,1.26,35.15-5.4   c17.47-10.73,29.39-26.17,36.41-45.25C224.14,358.65,225.05,352.69,226.39,346.93z"/>
	<path class="st0" d="M292.05,700.79c-6.8,16.56-18.52,27.36-35.36,32.34c-1.19,0.35-3.02-0.07-4.14-0.77   c-7.02-4.84-11.79-11.58-15.15-19.29c-7.3-16.77-8.21-34.38-6.03-52.26c0.28-2.53,0.77-5.05,1.33-8.28   C251.57,670.13,269.74,687.74,292.05,700.79z"/>
	<path class="st0" d="M445.41,179.37c-2.81,4.49-6.95,6.38-11.44,7.44c-5.33,1.19-10.8,1.75-16.21,2.88   c-5.4,1.12-10.8,2.6-16.28,3.93c-0.84-4.84,0.21-10.1,1.89-15.15c1.96-5.96,4.42-11.79,6.38-17.82c1.96-5.96,3.65-12.07,5.54-18.45   c5.33,0.35,9.89,2.95,12.7,7.86c2.6,4.56,4.49,9.47,6.52,14.31C436.99,170.18,439.45,175.86,445.41,179.37z"/>
	<path class="st0" d="M655.87,733.83c-0.49,9.33-1.33,18.1-5.54,26.17c-1.05,2.03-2.53,3.93-4.14,5.61   c-5.89,5.96-9.47,6.24-16.35,1.54c-8.49-5.82-15.29-13.26-20.77-22.03c-1.75-2.81-1.12-4.77,1.26-6.1c2.1-1.12,4.56-2.03,6.88-2.1   c4.63-0.21,9.33,0.07,14.03,0.35C639.53,737.69,647.8,738.25,655.87,733.83z"/>
	<path class="st0" d="M705.19,270.96c-20.7,2.46-41.04,3.02-57.32,17.12c45.11-3.23,88.39-16.07,132.87-24.76   c-4.07,4.77-7.93,9.75-12.28,14.24c-11.36,11.79-24.9,20.77-38.58,29.61c-12.63,8.21-25.12,16.63-37.67,24.97   c-1.05,0.7-2.03,1.54-3.23,2.53c2.32,2.88,5.54,3.44,8.77,3.72c8.42,0.63,16.49-1.26,24.41-3.86c11.86-3.86,23.01-9.05,32.62-17.47   c12.35,12.14,22.94,25.47,32.13,39.92c23.71,37.04,39.5,77.1,44.76,120.88c7.23,59.42-8.35,112.46-45.67,159.18   c-11.15,13.96-23.78,26.45-37.67,37.6c-1.96,1.54-2.6,3.16-2.6,5.61c0.14,16.84-0.28,33.67-4.7,50.09   c-2.88,10.59-7.51,20.13-16.14,27.36c-9.89,8.21-13.4,8.28-21.89-1.33c-5.82-6.52-10.52-13.96-16.07-20.77   c-4.91-6.03-10.31-11.72-15.5-17.54c-1.4-1.54-2.95-1.68-4.98-0.91c-40.2,14.52-81.73,22.24-124.24,25.33   c-30.17,2.17-60.26,1.68-90.36-1.82c-1.19-0.14-2.88,0.77-3.65,1.75c-4.91,6.38-9.54,12.98-14.45,19.36   c-6.24,8.14-12.63,16.21-19.08,24.2c-1.61,1.96-3.72,3.58-5.75,5.12c-11.29,8.7-22.66,9.4-34.87,2.17   c-16.14-9.47-24.97-24.06-29.25-41.88c-3.51-14.8-3.79-29.61-1.05-44.55c0.14-0.91,0.21-1.82,0.35-2.74   c-0.35-0.14-0.7-0.21-1.05-0.35c-1.33,4.84-2.67,9.75-4.21,15.22c-11.58-6.1-22.45-11.51-33.04-17.4   c-25.19-13.96-48.76-30.03-68.4-51.28c-25.19-27.22-39.5-59.49-44.83-95.97c-0.56-3.65-0.98-7.37-1.54-12   c7.86,3.09,15.08,5.54,22.03,8.77c12.49,5.82,24.69,12.28,37.11,18.24c29.75,14.24,60.54,17.82,91.9,6.88   c43.07-15.01,69.59-46.09,78.85-90.15c14.73-69.94-10.24-146.55-84.47-189.98c-11.72-6.88-24.62-11.65-37.04-17.4   c-0.91-0.42-1.89-0.77-3.02-1.12c8.7-17.82,20.98-32.48,36.27-44.69c22.38-17.82,48.06-28.62,75.49-35.64   c35.22-8.98,71.07-11.01,107.2-8.35c37.18,2.74,73.31,10.38,107.9,24.48c26.17,10.66,50.51,24.34,70.58,44.69   C697.68,262.19,701.19,266.4,705.19,270.96z M437.62,376.4c0,24.06,5.54,46.09,16,65.38c29.89,55.14,97.3,76.47,151.11,46.51   c43.29-24.13,64.54-62.51,65.66-111.9c0.84-36.83-16.07-63.91-46.79-83.06c-11.15-6.95-23.29-11.86-35.99-15.29   c-24.69-6.66-49.53-6.1-74.36-1.47c-26.52,4.84-46.44,19.36-60.19,42.37C442.18,337.11,437.83,357.11,437.62,376.4z M256.27,585.11   c2.46,3.44,5.05,6.45,7.02,9.82c3.16,5.47,5.68,11.22,8.77,16.77c2.03,3.65,4.14,7.37,6.8,10.59c4.63,5.68,9.96,6.45,16.07,2.39   c2.6-1.75,5.19-3.72,7.09-6.17c5.33-6.95,10.38-14.1,15.43-21.19c0.56-0.77,0.91-1.75,1.68-3.09   C297.31,594.86,276.55,591.21,256.27,585.11z"/>
	<path class="st1" d="M653.4,375.69l-0.5-6l-1.2-12.7l-2.5-9.2l-2.5-9.2l-2.9-6.4l-2.9-6.4l-4-5.9l-4-5.9l-6.9-6.5l-6.9-6.5   l-6.4-3.8l-6.4-3.8l-9.5-3.1l-9.5-3.1l-8.5-1.4l-8.5-1.4H555h-15.3l-9.7,1l-9.7,1l-7,2.1l-7,2.1l-7,3.5l-7,3.5l-5.5,3.5l-5.5,3.5   l-6.9,6.6l-6.9,6.6l-4.3,6l-4.3,6l-3.1,6.2l-3.1,6.2l-2.4,8.4l-2.4,8.4l-1.2,10.1l-0.9,7.5v2.3v2.9l0.9,7.7l1.2,10.4l2.5,9.4   l2.5,9.4l4.3,9.1l4.3,9.1l5,7.4l5,7.4l5.1,5.7l5.1,5.7l8.1,6.1l8.1,6.1l7.6,3.8l7.6,3.8l6.6,2.2l6.6,2.2l6.9,1.4l6.9,1.4l16-0.4   l16-0.4l6.4-1.6l0,0l6.4-1.6l6.6-2.6l6.6-2.6l6.9-4.1l6.9-4.1l7-6.5l7-6.5l5-6.5l5-6.5l5.4-11l5.4-11l2.6-10l2.6-10l1.1-11.3   l0.8-8.3L653.4,375.69z M560.2,386.89v2.4l-1.6,1.6l-1.6,1.6h-2.7h-2.7l-1.2-1.2l-1.2-1.2v-3.1v-3.1l1.2-1.2l1.2-1.2h2.7h2.7   l1.6,1.6l1.6,1.6V386.89z"/>
	<path class="st1" d="M363.2,197.89l-5.5-3.7l-6.3-2.8l-6.3-2.8l-5.9-1.5l-5.9-1.5l-9.2-1l-9.1-1h-0.3h-0.1l-9.5,1.1l-9.6,1.1   l-7.3,1.9l-7.3,1.9l-6.8,2.7l-6.8,2.7l-7.9,4.6l-7.9,4.6l-6.8,5.7l-6.8,5.7l-4.8,6.3l-4.8,6.3l-3.3,7l-3.3,7l-1.6,6l-1.6,6   l-0.6,8.6l-0.5,7.9l0.4,1l0.5,0.3l0.9,0.6l9.5-1.4l9.5-1.4h11h11l9.5,1.5l9.5,1.5l3,0.9l3,0.9l1.6,0.1l1.6,0.1l6.1-9.3l0,0l6.1-9.3   l6.5-7.3l6.5-7.3l6.8-6.1l6.8-6.1l9-6.3l9-6.3l11.8-6.7l11.8-6.7v-1v-0.8L363.2,197.89z M283.4,244.89l-3.5,3.5h-1.4h-1.4l-1.2-1.2   l-1.2-1.2v-1.9v-1.9l1.7-2.8l1.7-2.8l2.2-1.2l2.2-1.2l1.1,0.2l0,0l0,0l0.7,0.1l1.9,0.4l0.2,2.4l0.3,0.3l-0.2,0.8l0.3,3.1   L283.4,244.89z"/>
	<path class="st2" d="M256.27,585.11c20.27,6.1,40.97,9.75,62.93,9.05c-0.7,1.4-1.12,2.32-1.68,3.09   c-5.12,7.09-10.1,14.31-15.43,21.19c-1.89,2.46-4.49,4.42-7.09,6.17c-6.1,4.07-11.44,3.3-16.07-2.39c-2.6-3.23-4.77-6.95-6.8-10.59   c-3.09-5.54-5.61-11.29-8.77-16.77C261.32,591.49,258.73,588.55,256.27,585.11z"/>
	<path class="st2" d="M336.53,413.65c-1.4,26.8-10.87,49.81-31.36,67.63c-11.93,10.45-25.89,12.42-40.69,7.93   c-14.38-4.28-24.2-17.19-24.97-32.2c-1.19-21.89,7.58-40.27,20.84-56.82c5.89-7.37,12.77-13.61,20.91-18.45   c8.42-5.05,17.54-6.95,27.22-6.1c14.73,1.19,24.69,11.51,27.15,27.99C336.04,406.92,336.25,410.28,336.53,413.65z"/>
	<path class="st2" d="M226.39,346.93c-1.4,5.75-2.24,11.72-4.28,17.26c-7.02,19.15-18.94,34.52-36.41,45.25   c-10.87,6.66-22.52,9.54-35.15,5.4c-5.05-1.68-6.31-3.23-6.52-8.63c-0.35-8.07,1.68-15.78,4.14-23.36   c5.4-16.35,12.91-31.64,24.41-44.55c4.7-5.19,10.45-9.61,16.35-13.54c5.4-3.65,11.79-4.42,18.24-2.95   C219.23,324.49,225.76,333.39,226.39,346.93z"/>
	<path class="st2" d="M437.62,376.4c0.21-19.29,4.56-39.29,15.43-57.53c13.75-23.01,33.74-37.53,60.19-42.37   c24.83-4.56,49.74-5.12,74.36,1.47c12.7,3.44,24.83,8.28,35.99,15.29c30.73,19.15,47.63,46.3,46.79,83.06   c-1.12,49.39-22.38,87.76-65.66,111.9c-53.81,30.03-121.23,8.63-151.11-46.51C443.16,422.49,437.62,400.46,437.62,376.4z    M551.69,282.04c-7.09,0.49-14.24,0.63-21.33,1.47c-34.38,4.28-60.19,21.54-75.49,52.69c-13.05,26.59-12.21,54.3-2.67,81.8   c15.43,44.55,54.37,73.24,99.69,74.01c44.48,0.77,78.5-21.33,94.99-62.37c11.72-29.11,12.49-59,3.09-88.89   c-8.28-26.31-25.89-43.92-51.98-52.83C583.05,282.95,567.48,281.69,551.69,282.04z"/>
	<path d="M562.7,387.07c-0.08,4.38-3.73,7.96-8.04,7.96c-4.55,0-8.12-3.82-7.96-8.36c0.16-4.38,3.73-7.88,8.2-7.71   C559.21,379.03,562.7,382.77,562.7,387.07z"/>
	<path d="M288.38,236.4c-0.11,4.63-4.84,11.19-9.36,12.8c-3.55,1.29-5.59-0.11-5.38-3.87c0.11-4.63,4.95-11.19,9.47-12.8   C286.66,231.13,288.49,232.53,288.38,236.4z"/>
</g>
<g id="RING">
	<path class="st0" d="M969.2,468.99v-16.1l-1.3-12.5l-1.3-12.5l-2-13l-2-13l-3.5-16.1l-3.5-16.1l-4-13.6l-4-13.6l-3.9-11.3   l-3.9-11.3l-3.8-9.5l-3.8-9.5l-6.3-13.8l-6.3-13.8l-7.2-13.2l-7.2-13.2l-8.4-13.5l-8.4-13.5l-7.6-10.5l-7.6-10.5l-9.2-11.5   l-9.2-11.5l-11-12l-11-12l-10.2-9.8l-10.2-9.8l-11.1-9.5l-11.1-9.5l-11.1-8.4l-11.1-8.4l-12-8l-12-8l-7.5-4.5l-7.5-4.5l-12.2-6.7   l-12.1-6.4l-13-6l-13-5.9l-13.8-5.4l-13.8-5.4l-14.4-4.8l-14.5-4.6l-13.5-3.4l-13.5-3.4l-13-2.6l-13-2.6l-10-1.5l-10-1.5l-13-1.3   l-13-1.3H505l-15.3-0.4l-15.3,0.7h-18.2l-13,1.3l-13,1.3l-13,2l-13,2l-12,2.5l-12,2.5l-13.5,3.4l-13.5,3.5l-17.7,6l-17.7,6   l-13.2,5.5l-13.2,5.5l-15.7,7.9l-15.7,7.8l-9.9,5.7l-9.9,5.7l-13,8.5l-13,8.5l-11,8.2l-11,8.2l-12.5,10.5l-12.5,10.4l-17,17l-17,17   l-10.4,12.5l-10.4,12.5l-8.2,11l-8.2,11l-8.5,13l-8.5,13l-5.7,9.9l-5.7,9.9l-7.9,15.7l-7.8,15.7l-5.5,13.2l-5.7,13.2l-6,17.7   l-6,17.7l-3.4,13.5l-3.6,13.5l-2.5,12l-2.5,12l-2,13l-2,13l-1.3,13l-1.3,13v18.2l-0.5,15.3l0.7,15.3v18.2l1.3,13l1.3,13l1.5,10   l1.5,10l2.6,13l2.6,13l3.5,14l3.5,14l6.3,19l6.3,19l5.7,13.4l5.7,13.4l5.9,12.1l5.9,12.1l6.2,11l6.2,11l6.6,10.5l6.6,10.5l8.5,12   l8.5,12l9.2,11.5l9.2,11.5l11,12l11,12l10.2,9.8l10.2,9.8l11.1,9.5l11.1,9.5l11.1,8.4l11.1,8.4l13.5,9l13.5,9l12,7.1l12.5,7.2   l16,7.8l16,7.8l13,5.2l13,5.2l11.3,3.9l11.3,3.9l13.6,4l13.6,4l16.1,3.5l16.1,3.5l13,2l13,2l12.5,1l12.5,1.1l5,0.4l5,0.4l12.2-0.1   l9.4,0.1l13.6,0.2l12.1-0.7l1-0.1l16.6-0.2l13.6-1.5l13.6-1.5l12.9-2.1l12.9-2.1l13-2.9l13-2.9l7.5-2.1l7.5-2.1l10-3.1l10-3.1   l14-5.2l14-5.2l12-5.3l12-5.3l9.7-4.8l9.7-4.8l13.3-7.6l13.3-7.6l11.5-7.5l11.5-7.5l13-9.8l13-9.8l10-8.4l10-8.4l14.4-14l14.4-14   l10.7-12.2l10.7-12.2l9.4-12.1l9.4-12.1l7.4-10.7l7.4-10.7l8.1-13.5l8.1-13.5l6.8-13l6.8-13l5.7-13l5.7-13l5.2-14l5.2-14l3.1-10   l3.1-10l2.6-9.5l2.6-9.5l3-14l3-14l2-13l2-13l1.3-12.5l1.3-12.5v-16.1l0.5-9.7v-9.7v-9.7L969.2,468.99z M931.9,532.89l-1.3,12   l-2.5,15.5l-2.5,15.5l-2.9,12.7l-2.9,12.7l-3.5,12l-3.5,12l-4.4,12.4l-4.4,12.4l-3.7,9l-3.7,9l-6.7,14l-6.7,14l-7.8,13.5l-7.8,13.5   l-8,12l-8,12l-7.5,9.9l-7.5,9.9l-9,10.6l-9,10.6l-14.6,14.6l-14.6,14.6l-10.6,9l-10.6,9l-9.9,7.5l-9.9,7.5l-12,8l-12,8l-13.3,7.7   l-13.3,7.7l-8.7,4.4l-8.7,4.4l-14.2,6.1l-14.2,6.1l-12.7,4.5l-12.7,4.5l-12,3.5l-12,3.5l-12.7,2.9l-12.7,2.9l-12,2.1l-12,2.1   l-13.5,1.6l-13.5,1.6l-31,0.3l-31,0.3l-5-0.4l0,0l-5-0.4l-14-1.5l-14-1.5l-14.3-2.5l-14.2-2.8l-17.2-4.4l-17.2-4.4l-10-3.2l-10-3.2   l-16.1-6.4l-16.1-6.4l-12.4-5.9l-12.4-5.9l-13-7.3l-13-7.3l-17-11.3l-17-11.3l-12-9.6l-12-9.6l-12.6-11.1l-12.6-11.3l-11-11.9   l-11-11.9l-7.1-8.5l-7.1-8.5l-7.5-10l-7.5-10l-5.1-7.6l-5.1-7.6l-5.5-9.1l-5.5-9.1l-6.4-11.8l-6.4-11.8l-5.5-12.1l-5.5-12.1   l-4.5-11.5l-4.5-11.5l-4.6-13.9l-4.6-13.9l-3.9-16l-3.9-16l-2.6-14.6l-2.5-14.5l-1.7-14.5l-1.8-14.5v-33.5v-33.5l1.8-14.5l1.8-14.5   l1.9-11.5l1.9-11.5l2.1-9.5l2.1-9.5l3.5-12.9l3.5-12.9l5.4-15.7l5.4-15.7l5.1-11.9l5.1-11.9l9.2-18l9.2-18l8.2-13.1l8.2-13.1   l8.8-12l8.8-12l11-13.3l11-13.3l15.4-15.7l15.5-15.5l13.3-11l13.3-11l12-8.8l12-8.8l13.1-8.2l13.1-8.2l18-9.2l18-9.2l11.9-5.1   l11.9-5.1l15.7-5.4l15.7-5.4l12.9-3.5l12.9-3.5l9.5-2.1l9.5-2.1l11.5-1.9l11.5-1.9l14.5-1.8l14.5-1.8h33.5H523l14.5,1.8l14.5,1.8   l14.5,2.5l14.5,2.5l12.5,3l12.5,3l13.5,4.1l13.5,4.1l15,5.8l15,5.8l12.5,5.7l12.5,5.7l11.8,6.4l11.8,6.4l9.2,5.6l9.2,5.6l11.5,7.9   l11.5,7.9l13,10.4l13,10.4l12.5,11.4l12.5,11.4l11.4,12.5l11.4,12.5l10.4,13l10.4,13l11.3,17l11.3,17l7.3,13l7.3,13l5.9,12.4   l5.9,12.4l6.4,16.1l6.4,16.1l3.2,10l3.2,10l4.4,17.2l4.5,17.1l2.5,14.3l2.5,14.3l1.8,14.5l1.8,14.5v33.5v33.5L931.9,532.89z"/>
</g>
</svg>